<svg xmlns="http://www.w3.org/2000/svg" xmlns:xlink="http://www.w3.org/1999/xlink" width="1400" zoomAndPan="magnify" viewBox="0 0 1050 83.249999" height="111" preserveAspectRatio="xMidYMid meet" version="1.2"><defs><clipPath id="1b302b3970"><path d="M 701 0 L 880 0 L 880 82.507812 L 701 82.507812 Z M 701 0 "/></clipPath><clipPath id="432967116f"><path d="M 678.304688 99.308594 L 856.914062 -31.789062 L 879.949219 -0.40625 L 701.339844 130.691406 Z M 678.304688 99.308594 "/></clipPath><clipPath id="52647e716e"><path d="M 767.578125 33.78125 L 879.886719 -0.359375 L 701.339844 130.691406 Z M 767.578125 33.78125 "/></clipPath><clipPath id="1433730d21"><path d="M 4.6875 14.960938 L 1045.3125 14.960938 L 1045.3125 82.507812 L 4.6875 82.507812 Z M 4.6875 14.960938 "/></clipPath><clipPath id="6293b48b1e"><path d="M 1017 50 L 1033 50 L 1033 68.632812 L 1017 68.632812 Z M 1017 50 "/></clipPath><clipPath id="fd741e5c01"><path d="M 880.625 27.75 L 1028 27.75 L 1028 61 L 880.625 61 Z M 880.625 27.75 "/></clipPath><clipPath id="903b86df09"><path d="M 758.539062 0 L 1045.3125 0 L 1045.3125 82.507812 L 758.539062 82.507812 Z M 758.539062 0 "/></clipPath><clipPath id="c15671c7b3"><path d="M 1156.488281 179.03125 L 878.726562 179.03125 L 758.546875 89.511719 L 878.726562 -0.0117188 L 1156.488281 -0.0117188 L 1036.308594 89.511719 Z M 1156.488281 179.03125 "/></clipPath></defs><g id="8897fbf846"><g clip-rule="nonzero" clip-path="url(#1b302b3970)"><g clip-rule="nonzero" clip-path="url(#432967116f)"><g clip-rule="nonzero" clip-path="url(#52647e716e)"><path style=" stroke:none;fill-rule:nonzero;fill:#0a8086;fill-opacity:1;" d="M 678.304688 99.308594 L 856.792969 -31.699219 L 879.824219 -0.316406 L 701.339844 130.691406 Z M 678.304688 99.308594 "/></g></g></g><g clip-rule="nonzero" clip-path="url(#1433730d21)"><path style=" stroke:none;fill-rule:nonzero;fill:#efab1a;fill-opacity:1;" d="M -3.085938 14.960938 L 1045.1875 14.960938 L 1045.1875 82.507812 L -3.085938 82.507812 Z M -3.085938 14.960938 "/></g><g clip-rule="nonzero" clip-path="url(#6293b48b1e)"><path style=" stroke:none;fill-rule:nonzero;fill:#ffffff;fill-opacity:1;" d="M 1029.523438 68.644531 L 1025.15625 63.132812 L 1022.257812 67.332031 L 1017.875 50.980469 L 1032.847656 59.039062 L 1028.070312 60.871094 L 1032.425781 66.371094 Z M 1029.523438 68.644531 "/></g><path style=" stroke:none;fill-rule:nonzero;fill:#ffffff;fill-opacity:1;" d="M 903.417969 36.792969 C 902.847656 35.042969 902.078125 33.582031 901.164062 32.496094 C 903.101562 33.152344 904.839844 34.28125 906.246094 35.800781 C 905.410156 36.195312 904.460938 36.523438 903.417969 36.792969 Z M 903.417969 36.792969 "/><path style=" stroke:none;fill-rule:nonzero;fill:#ffffff;fill-opacity:1;" d="M 896.480469 56.144531 C 895.289062 55.808594 894.152344 54.65625 893.242188 52.863281 C 892.960938 52.304688 892.703125 51.6875 892.472656 51.015625 C 893.746094 50.78125 895.09375 50.648438 896.476562 50.609375 L 896.476562 56.144531 Z M 896.480469 56.144531 "/><path style=" stroke:none;fill-rule:nonzero;fill:#ffffff;fill-opacity:1;" d="M 891.414062 43.316406 C 891.460938 41.628906 891.675781 40.011719 892.054688 38.515625 C 893.464844 38.78125 894.949219 38.9375 896.480469 38.972656 L 896.480469 43.316406 Z M 891.414062 43.316406 "/><path style=" stroke:none;fill-rule:nonzero;fill:#ffffff;fill-opacity:1;" d="M 896.480469 37.515625 C 895.09375 37.476562 893.742188 37.34375 892.464844 37.109375 C 892.695312 36.433594 892.957031 35.800781 893.242188 35.234375 C 894.148438 33.441406 895.289062 32.289062 896.480469 31.953125 Z M 896.480469 37.515625 "/><path style=" stroke:none;fill-rule:nonzero;fill:#ffffff;fill-opacity:1;" d="M 892.058594 49.609375 C 891.679688 48.105469 891.464844 46.484375 891.414062 44.78125 L 896.480469 44.78125 L 896.480469 49.152344 C 894.953125 49.191406 893.46875 49.34375 892.058594 49.609375 Z M 892.058594 49.609375 "/><path style=" stroke:none;fill-rule:nonzero;fill:#ffffff;fill-opacity:1;" d="M 884.960938 43.316406 C 885.09375 41.019531 885.875 38.832031 887.226562 36.957031 C 888.214844 37.457031 889.351562 37.871094 890.609375 38.195312 C 890.214844 39.792969 889.996094 41.511719 889.949219 43.316406 Z M 884.960938 43.316406 "/><path style=" stroke:none;fill-rule:nonzero;fill:#ffffff;fill-opacity:1;" d="M 893.261719 55.597656 C 891.332031 54.949219 889.601562 53.824219 888.195312 52.316406 C 889.03125 51.925781 889.972656 51.597656 891.015625 51.328125 C 891.585938 53.066406 892.351562 54.519531 893.261719 55.597656 Z M 893.261719 55.597656 "/><path style=" stroke:none;fill-rule:nonzero;fill:#ffffff;fill-opacity:1;" d="M 887.242188 51.160156 C 885.882812 49.285156 885.09375 47.089844 884.960938 44.78125 L 889.945312 44.78125 C 889.992188 46.59375 890.214844 48.324219 890.613281 49.929688 C 889.359375 50.25 888.230469 50.664062 887.242188 51.160156 Z M 887.242188 51.160156 "/><path style=" stroke:none;fill-rule:nonzero;fill:#ffffff;fill-opacity:1;" d="M 891.007812 36.792969 C 889.964844 36.523438 889.015625 36.191406 888.179688 35.800781 C 889.582031 34.28125 891.324219 33.148438 893.261719 32.492188 C 892.347656 33.582031 891.578125 35.046875 891.007812 36.792969 Z M 891.007812 36.792969 "/><path style=" stroke:none;fill-rule:nonzero;fill:#ffffff;fill-opacity:1;" d="M 904.476562 43.316406 C 904.433594 41.511719 904.207031 39.792969 903.816406 38.195312 C 905.074219 37.871094 906.207031 37.453125 907.195312 36.957031 C 908.546875 38.832031 909.328125 41.019531 909.464844 43.316406 Z M 904.476562 43.316406 "/><path style=" stroke:none;fill-rule:nonzero;fill:#ffffff;fill-opacity:1;" d="M 907.183594 51.160156 C 906.195312 50.664062 905.0625 50.25 903.808594 49.929688 C 904.207031 48.324219 904.433594 46.59375 904.476562 44.78125 L 909.464844 44.78125 C 909.328125 47.085938 908.542969 49.285156 907.183594 51.160156 Z M 907.183594 51.160156 "/><path style=" stroke:none;fill-rule:nonzero;fill:#ffffff;fill-opacity:1;" d="M 901.164062 55.597656 C 902.074219 54.519531 902.84375 53.066406 903.410156 51.328125 C 904.449219 51.597656 905.394531 51.925781 906.230469 52.316406 C 904.824219 53.828125 903.09375 54.949219 901.164062 55.597656 Z M 901.164062 55.597656 "/><path style=" stroke:none;fill-rule:nonzero;fill:#ffffff;fill-opacity:1;" d="M 897.945312 43.316406 L 897.945312 38.972656 C 899.476562 38.933594 900.960938 38.78125 902.371094 38.515625 C 902.75 40.011719 902.960938 41.628906 903.011719 43.316406 Z M 897.945312 43.316406 "/><path style=" stroke:none;fill-rule:nonzero;fill:#ffffff;fill-opacity:1;" d="M 897.945312 31.957031 C 899.136719 32.289062 900.273438 33.445312 901.183594 35.238281 C 901.46875 35.804688 901.730469 36.433594 901.960938 37.113281 C 900.683594 37.347656 899.335938 37.480469 897.945312 37.515625 Z M 897.945312 31.957031 "/><path style=" stroke:none;fill-rule:nonzero;fill:#ffffff;fill-opacity:1;" d="M 902.367188 49.609375 C 900.957031 49.34375 899.472656 49.191406 897.945312 49.152344 L 897.945312 44.78125 L 903.011719 44.78125 C 902.960938 46.484375 902.746094 48.105469 902.367188 49.609375 Z M 902.367188 49.609375 "/><path style=" stroke:none;fill-rule:nonzero;fill:#ffffff;fill-opacity:1;" d="M 897.945312 50.609375 C 899.332031 50.648438 900.675781 50.78125 901.949219 51.015625 C 901.726562 51.683594 901.46875 52.304688 901.179688 52.863281 C 900.273438 54.65625 899.132812 55.804688 897.945312 56.144531 Z M 897.945312 50.609375 "/><g clip-rule="nonzero" clip-path="url(#fd741e5c01)"><path style=" stroke:none;fill-rule:nonzero;fill:#ffffff;fill-opacity:1;" d="M 1027.695312 44.050781 C 1027.695312 35.070312 1020.34375 27.761719 1011.304688 27.761719 L 897.164062 27.761719 C 888.125 27.761719 880.769531 35.070312 880.769531 44.050781 C 880.769531 53.03125 888.125 60.339844 897.164062 60.339844 L 1011.308594 60.339844 C 1013.8125 60.339844 1016.183594 59.773438 1018.3125 58.769531 L 1017.957031 57.441406 C 1015.953125 58.429688 1013.691406 58.988281 1011.308594 58.988281 L 897.164062 58.988281 C 888.871094 58.988281 882.128906 52.285156 882.128906 44.050781 C 882.128906 35.808594 888.875 29.109375 897.164062 29.109375 L 1011.308594 29.109375 C 1019.601562 29.109375 1026.34375 35.8125 1026.34375 44.050781 C 1026.34375 47.101562 1025.414062 49.945312 1023.824219 52.3125 L 1025.03125 52.9375 C 1026.714844 50.378906 1027.695312 47.328125 1027.695312 44.050781 Z M 1027.695312 44.050781 "/></g><g style="fill:#ffffff;fill-opacity:1;"><g transform="translate(915.54647, 48.266825)"><path style="stroke:none" d="M 1.265625 -5.484375 C 1.804688 -6.109375 2.570312 -6.421875 3.5625 -6.421875 C 5.0625 -6.421875 5.992188 -5.753906 6.359375 -4.421875 L 4.734375 -4.140625 C 4.585938 -4.796875 4.207031 -5.125 3.59375 -5.125 C 3.164062 -5.125 2.828125 -4.976562 2.578125 -4.6875 C 2.335938 -4.394531 2.21875 -3.925781 2.21875 -3.28125 C 2.21875 -2.632812 2.320312 -2.128906 2.53125 -1.765625 C 2.738281 -1.398438 3.097656 -1.21875 3.609375 -1.21875 C 3.941406 -1.21875 4.207031 -1.316406 4.40625 -1.515625 C 4.601562 -1.710938 4.738281 -2.007812 4.8125 -2.40625 L 6.453125 -2.140625 C 6.109375 -0.617188 5.132812 0.140625 3.53125 0.140625 C 2.570312 0.140625 1.835938 -0.148438 1.328125 -0.734375 C 1.054688 -1.023438 0.851562 -1.382812 0.71875 -1.8125 C 0.582031 -2.25 0.515625 -2.691406 0.515625 -3.140625 C 0.515625 -3.609375 0.578125 -4.046875 0.703125 -4.453125 C 0.828125 -4.859375 1.015625 -5.203125 1.265625 -5.484375 Z M 1.265625 -5.484375 "/></g></g><g style="fill:#ffffff;fill-opacity:1;"><g transform="translate(922.289239, 48.266825)"><path style="stroke:none" d="M 3.71875 -6.421875 C 4.394531 -6.421875 4.976562 -6.265625 5.46875 -5.953125 C 5.96875 -5.648438 6.34375 -5.25 6.59375 -4.75 C 6.84375 -4.25 6.96875 -3.722656 6.96875 -3.171875 C 6.96875 -2.585938 6.835938 -2.039062 6.578125 -1.53125 C 6.316406 -1.03125 5.941406 -0.625 5.453125 -0.3125 C 4.960938 -0.0078125 4.390625 0.140625 3.734375 0.140625 C 3.171875 0.140625 2.644531 0.0234375 2.15625 -0.203125 C 1.664062 -0.429688 1.265625 -0.796875 0.953125 -1.296875 C 0.640625 -1.804688 0.484375 -2.445312 0.484375 -3.21875 C 0.484375 -3.757812 0.601562 -4.273438 0.84375 -4.765625 C 1.09375 -5.253906 1.460938 -5.648438 1.953125 -5.953125 C 2.441406 -6.265625 3.03125 -6.421875 3.71875 -6.421875 Z M 2.1875 -3.140625 C 2.1875 -2.503906 2.332031 -2.023438 2.625 -1.703125 C 2.925781 -1.378906 3.289062 -1.21875 3.71875 -1.21875 C 4.144531 -1.21875 4.507812 -1.378906 4.8125 -1.703125 C 5.113281 -2.023438 5.265625 -2.507812 5.265625 -3.15625 C 5.265625 -3.75 5.117188 -4.210938 4.828125 -4.546875 C 4.546875 -4.890625 4.171875 -5.0625 3.703125 -5.0625 C 3.285156 -5.0625 2.925781 -4.894531 2.625 -4.5625 C 2.332031 -4.238281 2.1875 -3.765625 2.1875 -3.140625 Z M 2.1875 -3.140625 "/></g></g><g style="fill:#ffffff;fill-opacity:1;"><g transform="translate(929.698998, 48.266825)"><path style="stroke:none" d="M 4.25 -6.421875 C 5.0625 -6.421875 5.65625 -6.09375 6.03125 -5.4375 C 6.570312 -6.09375 7.207031 -6.421875 7.9375 -6.421875 C 8.632812 -6.421875 9.148438 -6.226562 9.484375 -5.84375 C 9.828125 -5.46875 10 -4.898438 10 -4.140625 L 10 0 L 8.34375 0 L 8.34375 -3.765625 C 8.34375 -4.210938 8.28125 -4.554688 8.15625 -4.796875 C 8.039062 -5.035156 7.804688 -5.15625 7.453125 -5.15625 C 7.117188 -5.15625 6.847656 -5.035156 6.640625 -4.796875 C 6.429688 -4.566406 6.300781 -4.265625 6.25 -3.890625 C 6.21875 -3.597656 6.203125 -3.335938 6.203125 -3.109375 L 6.203125 0 L 4.546875 0 L 4.546875 -3.703125 C 4.546875 -4.210938 4.488281 -4.582031 4.375 -4.8125 C 4.269531 -5.039062 4.039062 -5.15625 3.6875 -5.15625 C 3.425781 -5.15625 3.191406 -5.082031 2.984375 -4.9375 C 2.773438 -4.800781 2.632812 -4.613281 2.5625 -4.375 C 2.457031 -4.082031 2.40625 -3.675781 2.40625 -3.15625 L 2.40625 0 L 0.75 0 L 0.75 -6.28125 L 2.296875 -6.28125 L 2.3125 -5.4375 C 2.570312 -5.75 2.84375 -5.988281 3.125 -6.15625 C 3.414062 -6.332031 3.789062 -6.421875 4.25 -6.421875 Z M 4.25 -6.421875 "/></g></g><g style="fill:#ffffff;fill-opacity:1;"><g transform="translate(940.480149, 48.266825)"><path style="stroke:none" d="M 1.421875 -8.234375 C 1.578125 -8.429688 1.785156 -8.578125 2.046875 -8.671875 C 2.304688 -8.773438 2.625 -8.828125 3 -8.828125 C 3.46875 -8.828125 3.929688 -8.757812 4.390625 -8.625 L 4.171875 -7.453125 C 3.890625 -7.515625 3.632812 -7.546875 3.40625 -7.546875 C 3.144531 -7.546875 2.96875 -7.484375 2.875 -7.359375 C 2.78125 -7.234375 2.734375 -7.050781 2.734375 -6.8125 L 2.734375 -6.28125 L 3.984375 -6.28125 L 3.984375 -4.953125 L 2.734375 -4.953125 L 2.734375 0 L 1.0625 0 L 1.0625 -4.953125 L 0.140625 -4.953125 L 0.140625 -6.28125 L 1.0625 -6.28125 L 1.0625 -6.90625 C 1.0625 -7.5 1.179688 -7.941406 1.421875 -8.234375 Z M 1.421875 -8.234375 "/></g></g><g style="fill:#ffffff;fill-opacity:1;"><g transform="translate(944.51853, 48.266825)"><path style="stroke:none" d="M 3.71875 -6.421875 C 4.394531 -6.421875 4.976562 -6.265625 5.46875 -5.953125 C 5.96875 -5.648438 6.34375 -5.25 6.59375 -4.75 C 6.84375 -4.25 6.96875 -3.722656 6.96875 -3.171875 C 6.96875 -2.585938 6.835938 -2.039062 6.578125 -1.53125 C 6.316406 -1.03125 5.941406 -0.625 5.453125 -0.3125 C 4.960938 -0.0078125 4.390625 0.140625 3.734375 0.140625 C 3.171875 0.140625 2.644531 0.0234375 2.15625 -0.203125 C 1.664062 -0.429688 1.265625 -0.796875 0.953125 -1.296875 C 0.640625 -1.804688 0.484375 -2.445312 0.484375 -3.21875 C 0.484375 -3.757812 0.601562 -4.273438 0.84375 -4.765625 C 1.09375 -5.253906 1.460938 -5.648438 1.953125 -5.953125 C 2.441406 -6.265625 3.03125 -6.421875 3.71875 -6.421875 Z M 2.1875 -3.140625 C 2.1875 -2.503906 2.332031 -2.023438 2.625 -1.703125 C 2.925781 -1.378906 3.289062 -1.21875 3.71875 -1.21875 C 4.144531 -1.21875 4.507812 -1.378906 4.8125 -1.703125 C 5.113281 -2.023438 5.265625 -2.507812 5.265625 -3.15625 C 5.265625 -3.75 5.117188 -4.210938 4.828125 -4.546875 C 4.546875 -4.890625 4.171875 -5.0625 3.703125 -5.0625 C 3.285156 -5.0625 2.925781 -4.894531 2.625 -4.5625 C 2.332031 -4.238281 2.1875 -3.765625 2.1875 -3.140625 Z M 2.1875 -3.140625 "/></g></g><g style="fill:#ffffff;fill-opacity:1;"><g transform="translate(951.928289, 48.266825)"><path style="stroke:none" d="M 3.78125 -6.421875 C 3.957031 -6.421875 4.144531 -6.390625 4.34375 -6.328125 C 4.539062 -6.273438 4.71875 -6.207031 4.875 -6.125 L 4.359375 -4.671875 C 4.066406 -4.847656 3.804688 -4.9375 3.578125 -4.9375 C 3.265625 -4.9375 3.023438 -4.828125 2.859375 -4.609375 C 2.703125 -4.398438 2.597656 -4.101562 2.546875 -3.71875 C 2.492188 -3.332031 2.46875 -2.820312 2.46875 -2.1875 L 2.46875 0 L 0.796875 0 L 0.796875 -6.28125 L 2.34375 -6.28125 L 2.34375 -5.390625 L 2.359375 -5.390625 C 2.566406 -5.734375 2.769531 -5.988281 2.96875 -6.15625 C 3.175781 -6.332031 3.445312 -6.421875 3.78125 -6.421875 Z M 3.78125 -6.421875 "/></g></g><g style="fill:#ffffff;fill-opacity:1;"><g transform="translate(956.645793, 48.266825)"><path style="stroke:none" d="M 2.625 -6.28125 L 3.75 -6.28125 L 3.75 -4.953125 L 2.625 -4.953125 L 2.625 -2.1875 C 2.625 -1.925781 2.628906 -1.726562 2.640625 -1.59375 C 2.660156 -1.46875 2.703125 -1.375 2.765625 -1.3125 C 2.835938 -1.257812 2.941406 -1.234375 3.078125 -1.234375 C 3.242188 -1.234375 3.46875 -1.285156 3.75 -1.390625 L 3.890625 -0.109375 C 3.722656 -0.0234375 3.515625 0.0351562 3.265625 0.078125 C 3.023438 0.117188 2.796875 0.140625 2.578125 0.140625 C 2.265625 0.140625 1.984375 0.0859375 1.734375 -0.015625 C 1.492188 -0.117188 1.320312 -0.257812 1.21875 -0.4375 C 1.09375 -0.632812 1.015625 -0.859375 0.984375 -1.109375 C 0.960938 -1.359375 0.953125 -1.664062 0.953125 -2.03125 L 0.953125 -4.953125 L 0.1875 -4.953125 L 0.1875 -6.28125 L 0.953125 -6.28125 L 0.953125 -7.53125 L 2.625 -8.515625 Z M 2.625 -6.28125 "/></g></g><g style="fill:#ffffff;fill-opacity:1;"><g transform="translate(960.684174, 48.266825)"><path style="stroke:none" d="M 3.171875 -6.421875 C 3.953125 -6.421875 4.566406 -6.289062 5.015625 -6.03125 C 5.460938 -5.78125 5.769531 -5.359375 5.9375 -4.765625 L 4.359375 -4.46875 C 4.285156 -4.726562 4.15625 -4.921875 3.96875 -5.046875 C 3.78125 -5.171875 3.515625 -5.234375 3.171875 -5.234375 C 2.421875 -5.234375 2.046875 -5.0625 2.046875 -4.71875 C 2.046875 -4.550781 2.164062 -4.414062 2.40625 -4.3125 C 2.65625 -4.207031 3.015625 -4.101562 3.484375 -4 C 4.066406 -3.875 4.535156 -3.742188 4.890625 -3.609375 C 5.253906 -3.472656 5.550781 -3.273438 5.78125 -3.015625 C 6.019531 -2.753906 6.140625 -2.40625 6.140625 -1.96875 C 6.140625 -1.613281 6.039062 -1.273438 5.84375 -0.953125 C 5.644531 -0.628906 5.332031 -0.363281 4.90625 -0.15625 C 4.476562 0.0390625 3.9375 0.140625 3.28125 0.140625 C 2.550781 0.140625 1.90625 -0.015625 1.34375 -0.328125 C 0.78125 -0.640625 0.425781 -1.128906 0.28125 -1.796875 L 1.9375 -2.046875 C 2.09375 -1.378906 2.539062 -1.046875 3.28125 -1.046875 C 3.570312 -1.046875 3.84375 -1.09375 4.09375 -1.1875 C 4.351562 -1.289062 4.484375 -1.472656 4.484375 -1.734375 C 4.484375 -1.898438 4.425781 -2.015625 4.3125 -2.078125 C 4.195312 -2.148438 4.007812 -2.21875 3.75 -2.28125 C 2.976562 -2.445312 2.378906 -2.601562 1.953125 -2.75 C 1.523438 -2.894531 1.175781 -3.101562 0.90625 -3.375 C 0.644531 -3.65625 0.515625 -4.03125 0.515625 -4.5 C 0.515625 -5.15625 0.765625 -5.640625 1.265625 -5.953125 C 1.765625 -6.265625 2.398438 -6.421875 3.171875 -6.421875 Z M 3.171875 -6.421875 "/></g></g><g style="fill:#ffffff;fill-opacity:1;"><g transform="translate(967.426944, 48.266825)"><path style="stroke:none" d="M 3.78125 -6.421875 C 3.957031 -6.421875 4.144531 -6.390625 4.34375 -6.328125 C 4.539062 -6.273438 4.71875 -6.207031 4.875 -6.125 L 4.359375 -4.671875 C 4.066406 -4.847656 3.804688 -4.9375 3.578125 -4.9375 C 3.265625 -4.9375 3.023438 -4.828125 2.859375 -4.609375 C 2.703125 -4.398438 2.597656 -4.101562 2.546875 -3.71875 C 2.492188 -3.332031 2.46875 -2.820312 2.46875 -2.1875 L 2.46875 0 L 0.796875 0 L 0.796875 -6.28125 L 2.34375 -6.28125 L 2.34375 -5.390625 L 2.359375 -5.390625 C 2.566406 -5.734375 2.769531 -5.988281 2.96875 -6.15625 C 3.175781 -6.332031 3.445312 -6.421875 3.78125 -6.421875 Z M 3.78125 -6.421875 "/></g></g><g style="fill:#ffffff;fill-opacity:1;"><g transform="translate(972.144449, 48.266825)"><path style="stroke:none" d="M 3.28125 -6.421875 C 4.28125 -6.421875 5.023438 -6.09375 5.515625 -5.4375 C 6.003906 -4.789062 6.25 -3.867188 6.25 -2.671875 L 2.078125 -2.671875 C 2.097656 -2.242188 2.222656 -1.878906 2.453125 -1.578125 C 2.679688 -1.273438 3.015625 -1.125 3.453125 -1.125 C 3.734375 -1.125 3.957031 -1.191406 4.125 -1.328125 C 4.300781 -1.472656 4.429688 -1.695312 4.515625 -2 L 6.171875 -1.71875 C 5.960938 -1.101562 5.625 -0.640625 5.15625 -0.328125 C 4.6875 -0.015625 4.113281 0.140625 3.4375 0.140625 C 2.425781 0.140625 1.660156 -0.160156 1.140625 -0.765625 C 0.898438 -1.046875 0.710938 -1.398438 0.578125 -1.828125 C 0.453125 -2.253906 0.390625 -2.679688 0.390625 -3.109375 C 0.390625 -3.679688 0.488281 -4.21875 0.6875 -4.71875 C 0.894531 -5.226562 1.210938 -5.640625 1.640625 -5.953125 C 2.078125 -6.265625 2.625 -6.421875 3.28125 -6.421875 Z M 2.125 -3.6875 L 4.609375 -3.6875 C 4.597656 -4.195312 4.46875 -4.566406 4.21875 -4.796875 C 3.976562 -5.035156 3.691406 -5.15625 3.359375 -5.15625 C 2.972656 -5.15625 2.671875 -5.015625 2.453125 -4.734375 C 2.234375 -4.453125 2.125 -4.101562 2.125 -3.6875 Z M 2.125 -3.6875 "/></g></g><g style="fill:#ffffff;fill-opacity:1;"><g transform="translate(978.887218, 48.266825)"><path style="stroke:none" d="M 6.625 -8.6875 L 6.625 0 L 5.078125 0 L 5.078125 -0.921875 L 5.0625 -0.921875 C 4.789062 -0.515625 4.472656 -0.234375 4.109375 -0.078125 C 3.753906 0.0664062 3.425781 0.140625 3.125 0.140625 C 2.664062 0.140625 2.234375 0.015625 1.828125 -0.234375 C 1.429688 -0.484375 1.109375 -0.859375 0.859375 -1.359375 C 0.617188 -1.859375 0.5 -2.472656 0.5 -3.203125 C 0.5 -3.898438 0.617188 -4.488281 0.859375 -4.96875 C 1.097656 -5.457031 1.414062 -5.820312 1.8125 -6.0625 C 2.207031 -6.300781 2.648438 -6.421875 3.140625 -6.421875 C 3.847656 -6.421875 4.457031 -6.128906 4.96875 -5.546875 L 4.96875 -8.6875 Z M 2.203125 -3.125 C 2.203125 -2.425781 2.332031 -1.925781 2.59375 -1.625 C 2.863281 -1.320312 3.175781 -1.171875 3.53125 -1.171875 C 3.75 -1.171875 3.96875 -1.226562 4.1875 -1.34375 C 4.40625 -1.457031 4.597656 -1.671875 4.765625 -1.984375 C 4.910156 -2.265625 4.984375 -2.695312 4.984375 -3.28125 C 4.984375 -3.882812 4.851562 -4.347656 4.59375 -4.671875 C 4.332031 -4.992188 3.992188 -5.15625 3.578125 -5.15625 L 3.515625 -5.15625 C 3.046875 -5.125 2.707031 -4.914062 2.5 -4.53125 C 2.300781 -4.15625 2.203125 -3.6875 2.203125 -3.125 Z M 2.203125 -3.125 "/></g></g><g style="fill:#ffffff;fill-opacity:1;"><g transform="translate(986.296977, 48.266825)"><path style="stroke:none" d="M 3.328125 -6.421875 C 4.117188 -6.421875 4.707031 -6.316406 5.09375 -6.109375 C 5.488281 -5.910156 5.734375 -5.640625 5.828125 -5.296875 C 5.929688 -4.960938 5.984375 -4.523438 5.984375 -3.984375 L 5.96875 -2.140625 C 5.957031 -1.566406 5.972656 -1.148438 6.015625 -0.890625 C 6.066406 -0.640625 6.171875 -0.34375 6.328125 0 L 4.6875 0 C 4.644531 -0.09375 4.570312 -0.320312 4.46875 -0.6875 C 4.175781 -0.394531 3.867188 -0.179688 3.546875 -0.046875 C 3.222656 0.078125 2.878906 0.140625 2.515625 0.140625 C 1.898438 0.140625 1.398438 -0.03125 1.015625 -0.375 C 0.628906 -0.71875 0.4375 -1.160156 0.4375 -1.703125 C 0.4375 -2.171875 0.550781 -2.539062 0.78125 -2.8125 C 1.007812 -3.082031 1.289062 -3.273438 1.625 -3.390625 C 1.957031 -3.515625 2.347656 -3.617188 2.796875 -3.703125 C 3.492188 -3.835938 4.007812 -3.96875 4.34375 -4.09375 L 4.34375 -4.359375 C 4.34375 -4.640625 4.257812 -4.84375 4.09375 -4.96875 C 3.9375 -5.09375 3.644531 -5.15625 3.21875 -5.15625 C 2.882812 -5.15625 2.632812 -5.085938 2.46875 -4.953125 C 2.3125 -4.816406 2.191406 -4.617188 2.109375 -4.359375 L 0.609375 -4.640625 C 0.765625 -5.253906 1.050781 -5.703125 1.46875 -5.984375 C 1.894531 -6.273438 2.515625 -6.421875 3.328125 -6.421875 Z M 3.296875 -2.75 L 3.015625 -2.6875 C 2.398438 -2.5625 2.09375 -2.296875 2.09375 -1.890625 C 2.09375 -1.648438 2.179688 -1.445312 2.359375 -1.28125 C 2.535156 -1.113281 2.753906 -1.03125 3.015625 -1.03125 C 3.234375 -1.03125 3.453125 -1.085938 3.671875 -1.203125 C 3.890625 -1.316406 4.0625 -1.46875 4.1875 -1.65625 C 4.289062 -1.820312 4.34375 -2.109375 4.34375 -2.515625 L 4.34375 -3.015625 C 4.03125 -2.921875 3.679688 -2.832031 3.296875 -2.75 Z M 3.296875 -2.75 "/></g></g><g style="fill:#ffffff;fill-opacity:1;"><g transform="translate(993.039747, 48.266825)"><path style="stroke:none" d="M 2.53125 0 L 0.875 0 L 0.875 -1.65625 L 2.53125 -1.65625 Z M 2.53125 0 "/></g></g><g style="fill:#ffffff;fill-opacity:1;"><g transform="translate(996.411124, 48.266825)"><path style="stroke:none" d="M 3.78125 -6.421875 C 3.957031 -6.421875 4.144531 -6.390625 4.34375 -6.328125 C 4.539062 -6.273438 4.71875 -6.207031 4.875 -6.125 L 4.359375 -4.671875 C 4.066406 -4.847656 3.804688 -4.9375 3.578125 -4.9375 C 3.265625 -4.9375 3.023438 -4.828125 2.859375 -4.609375 C 2.703125 -4.398438 2.597656 -4.101562 2.546875 -3.71875 C 2.492188 -3.332031 2.46875 -2.820312 2.46875 -2.1875 L 2.46875 0 L 0.796875 0 L 0.796875 -6.28125 L 2.34375 -6.28125 L 2.34375 -5.390625 L 2.359375 -5.390625 C 2.566406 -5.734375 2.769531 -5.988281 2.96875 -6.15625 C 3.175781 -6.332031 3.445312 -6.421875 3.78125 -6.421875 Z M 3.78125 -6.421875 "/></g></g><g style="fill:#ffffff;fill-opacity:1;"><g transform="translate(1001.128629, 48.266825)"><path style="stroke:none" d="M 2.5 -3.0625 C 2.5 -2.613281 2.507812 -2.285156 2.53125 -2.078125 C 2.550781 -1.878906 2.59375 -1.71875 2.65625 -1.59375 C 2.726562 -1.457031 2.835938 -1.34375 2.984375 -1.25 C 3.140625 -1.164062 3.328125 -1.125 3.546875 -1.125 C 3.835938 -1.125 4.097656 -1.203125 4.328125 -1.359375 C 4.566406 -1.523438 4.71875 -1.726562 4.78125 -1.96875 C 4.851562 -2.195312 4.890625 -2.695312 4.890625 -3.46875 L 4.890625 -6.28125 L 6.546875 -6.28125 L 6.546875 0 L 5 0 L 5 -0.953125 L 4.984375 -0.953125 C 4.742188 -0.585938 4.4375 -0.3125 4.0625 -0.125 C 3.695312 0.0507812 3.316406 0.140625 2.921875 0.140625 C 2.566406 0.140625 2.226562 0.0664062 1.90625 -0.078125 C 1.59375 -0.222656 1.347656 -0.429688 1.171875 -0.703125 C 1.054688 -0.898438 0.972656 -1.113281 0.921875 -1.34375 C 0.867188 -1.582031 0.84375 -1.878906 0.84375 -2.234375 L 0.84375 -6.28125 L 2.5 -6.28125 Z M 2.5 -3.0625 "/></g></g><g clip-rule="nonzero" clip-path="url(#903b86df09)"><g clip-rule="nonzero" clip-path="url(#c15671c7b3)"><path style=" stroke:none;fill-rule:nonzero;fill:#0498a9;fill-opacity:1;" d="M 1156.488281 179.03125 L 758.539062 179.03125 L 758.539062 -0.0117188 L 1156.488281 -0.0117188 Z M 1156.488281 179.03125 "/></g></g></g></svg>